<?xml version="1.0" encoding="UTF-8" standalone="no"?><!DOCTYPE svg PUBLIC "-//W3C//DTD SVG 1.1//EN" "http://www.w3.org/Graphics/SVG/1.1/DTD/svg11.dtd"><svg width="100%" height="100%" viewBox="0 0 320 320" version="1.1" xmlns="http://www.w3.org/2000/svg" xmlns:xlink="http://www.w3.org/1999/xlink" xml:space="preserve" xmlns:serif="http://www.serif.com/" style="fill-rule:evenodd;clip-rule:evenodd;stroke-linecap:round;stroke-linejoin:round;stroke-miterlimit:1.5;"><rect x="0" y="0" width="319.679" height="319.679" style="fill:#2b2b2b;"/><g id="SHOW_IN_EDITMODE_ON"><path id="path12257" d="M8.991,29.97l-5.994,0c-0.548,0 -0.999,-0.451 -0.999,-0.999l-0,-5.994c0,-0.548 0.451,-0.999 0.999,-0.999l0.999,0l0,-11.988l-0.999,0c-0.548,-0 -0.999,-0.451 -0.999,-0.999l-0,-5.994c0,-0.548 0.451,-0.999 0.999,-0.999l5.994,-0c0.548,0 0.999,0.451 0.999,0.999l0,0.984l8.991,-0c0.011,-0.001 2.997,0.015 2.997,0.015l0,-0.999c0,-0.548 0.451,-0.999 0.999,-0.999l5.994,-0c0.548,0 0.999,0.451 0.999,0.999l0,5.994c0,0.548 -0.451,0.999 -0.999,0.999l-0.999,0l0,11.988l0.999,0c0.548,0 0.999,0.451 0.999,0.999l0,5.994c0,0.548 -0.451,0.999 -0.999,0.999l-5.994,0c-0.548,0 -0.999,-0.451 -0.999,-0.999l0,-1.014l-11.988,-0l0,1.014c-0,0.548 -0.451,0.999 -0.999,0.999Zm13.986,-19.98c-0.548,-0 -0.999,-0.451 -0.999,-0.999l0,-2.997l-0.014,0l-11.974,-0.015l0,3.012c-0,0.548 -0.451,0.999 -0.999,0.999l-2.997,0l0,11.988l2.997,0c0.548,0 0.999,0.451 0.999,0.999l0,2.981l11.988,0l0,-2.981c0,-0.548 0.451,-0.999 0.999,-0.999l2.997,0l-0,-11.988l-2.997,0Z" style="fill:#fff;fill-rule:nonzero;"/></g><g id="SHOW_IN_EDITMODE_OFF"><path id="path122571" serif:id="path12257" d="M40.959,29.97l-5.994,0c-0.548,0 -0.999,-0.451 -0.999,-0.999l0,-5.994c0,-0.548 0.451,-0.999 0.999,-0.999l0.999,0l0,-11.988l-0.999,0c-0.548,-0 -0.999,-0.451 -0.999,-0.999l0,-5.994c0,-0.548 0.451,-0.999 0.999,-0.999l5.994,-0c0.548,0 0.999,0.451 0.999,0.999l0,0.984l8.991,-0c0.011,-0.001 2.997,0.015 2.997,0.015l0,-0.999c0,-0.548 0.451,-0.999 0.999,-0.999l5.994,-0c0.548,0 0.999,0.451 0.999,0.999l-0,5.994c-0,0.548 -0.451,0.999 -0.999,0.999l-0.999,0l0,11.988l0.999,0c0.548,0 0.999,0.451 0.999,0.999l-0,5.994c-0,0.548 -0.451,0.999 -0.999,0.999l-5.994,0c-0.548,0 -0.999,-0.451 -0.999,-0.999l0,-1.014l-11.988,-0l0,1.014c0,0.548 -0.451,0.999 -0.999,0.999Zm18.981,-5.994l-3.996,0l-0,2.825c0.017,0.106 0.017,0.215 -0,0.32l-0,0.851l3.996,0l0,-3.996Zm-19.98,0l-3.996,0l0,3.996l3.996,0l0,-3.996Zm14.985,-13.986c-0.548,-0 -0.999,-0.451 -0.999,-0.999l0,-2.997l-0.014,0l-11.974,-0.015l0,3.012c0,0.548 -0.451,0.999 -0.999,0.999l-2.997,0l-0,11.988l2.997,0c0.548,0 0.999,0.451 0.999,0.999l0,2.981l11.988,0l0,-2.981c0,-0.548 0.451,-0.999 0.999,-0.999l2.997,0l0,-11.988l-2.997,0Zm4.995,-5.994l-3.996,0l-0,3.996l2.825,-0c0.106,-0.017 0.214,-0.017 0.32,-0l0.851,-0l0,-3.996Zm-19.98,0l-3.996,0l0,3.996l3.996,-0l0,-3.996Z" style="fill:#fff;fill-opacity:0.6;fill-rule:nonzero;"/></g><g id="SHOW_IN_EDITMODE_ON_INACTIVE"><path d="M28.689,33.966l-5.712,0c-0.548,0 -0.999,0.451 -0.999,0.999l0,0.999c0,-0 -2.986,-0.016 -2.997,-0.016l-8.991,0l0,-0.983c-0,-0.548 -0.451,-0.999 -0.999,-0.999l-5.994,0c-0.548,0 -0.999,0.451 -0.999,0.999l-0,5.994c0,0.548 0.451,0.999 0.999,0.999l0.999,0l0,9.646l1.998,-1.427l0,-8.219l2.997,0c0.548,0 0.999,-0.451 0.999,-0.999l0,-3.013l11.988,0.016l0,0.798l6.711,-4.794Zm-25.411,27.972l5.713,-0c0.548,-0 0.999,-0.451 0.999,-0.999l0,-1.015l11.988,0l0,1.015c0,0.548 0.451,0.999 0.999,0.999l5.994,-0c0.548,-0 0.999,-0.451 0.999,-0.999l0,-5.994c0,-0.548 -0.451,-0.999 -0.999,-0.999l-0.999,0l0,-9.646l-1.998,1.427l-0,8.219l-2.997,0c-0.548,0 -0.999,0.451 -0.999,0.999l0,2.981l-11.988,0l0,-0.782l-6.712,4.794Z" style="fill:#fff;fill-opacity:0.8;"/><path d="M1.998,57.942l27.972,-19.98" style="fill:none;stroke:#fff;stroke-opacity:0.6;stroke-width:4px;"/></g><g id="SHOW_IN_EDITMODE_OFF_INACTIVE"><path d="M60.379,33.966l-5.434,0c-0.548,0 -0.999,0.451 -0.999,0.999l0,0.999c0,-0 -2.986,-0.016 -2.997,-0.016l-8.991,0l0,-0.983c0,-0.548 -0.451,-0.999 -0.999,-0.999l-5.994,0c-0.548,0 -0.999,0.451 -0.999,0.999l0,5.994c0,0.548 0.451,0.999 0.999,0.999l0.999,0l0,9.447l1.998,-1.427l-0,-8.02l2.997,0c0.548,0 0.999,-0.451 0.999,-0.999l0,-3.013l11.988,0.016l0,0.599l1.998,-1.427l-0,-1.17l1.638,0l2.797,-1.998Zm-25.411,27.972l5.991,-0c0.548,-0 0.999,-0.451 0.999,-0.999l0,-1.015l11.988,0l0,1.015c0,0.548 0.451,0.999 0.999,0.999l5.994,-0c0.548,-0 0.999,-0.451 0.999,-0.999l-0,-5.994c-0,-0.548 -0.451,-0.999 -0.999,-0.999l-0.999,0l0,-9.845l-1.998,1.427l0,8.418l-2.997,0c-0.548,0 -0.999,0.451 -0.999,0.999l0,2.981l-11.988,0l0,-0.981l-1.998,1.427l0,1.568l-2.195,0l-2.797,1.998Zm4.992,-25.974l-3.996,0l0,3.996l3.996,0l0,-3.996Zm19.98,23.976l0,-3.996l-3.996,-0l-0,3.996l3.996,0Z" style="fill:#fff;fill-opacity:0.6;"/><path d="M33.966,57.942l27.972,-19.98" style="fill:none;stroke:#fff;stroke-opacity:0.6;stroke-width:4px;"/></g><g id="SHOW_IN_EDITMODE_ON_INACTIVE_BUTTON"><path id="path122572" serif:id="path12257" d="M8.991,93.906l-5.994,0c-0.548,-0 -0.999,-0.451 -0.999,-0.999l-0,-5.994c0,-0.548 0.451,-0.999 0.999,-0.999l0.999,0l0,-11.988l-0.999,-0c-0.548,-0 -0.999,-0.451 -0.999,-0.999l-0,-5.994c0,-0.548 0.451,-0.999 0.999,-0.999l5.994,0c0.548,0 0.999,0.451 0.999,0.999l0,0.983l8.991,0c0.011,0 2.997,0.016 2.997,0.016l0,-0.999c0,-0.548 0.451,-0.999 0.999,-0.999l5.994,0c0.548,0 0.999,0.451 0.999,0.999l0,5.994c0,0.548 -0.451,0.999 -0.999,0.999l-0.999,-0l0,11.988l0.999,0c0.548,0 0.999,0.451 0.999,0.999l0,5.994c0,0.548 -0.451,0.999 -0.999,0.999l-5.994,0c-0.548,-0 -0.999,-0.451 -0.999,-0.999l0,-1.015l-11.988,0l0,1.015c-0,0.548 -0.451,0.999 -0.999,0.999Zm13.986,-19.98c-0.548,-0 -0.999,-0.451 -0.999,-0.999l0,-2.997l-0.014,-0l-11.974,-0.016l0,3.013c-0,0.548 -0.451,0.999 -0.999,0.999l-2.997,-0l0,11.988l2.997,0c0.548,0 0.999,0.451 0.999,0.999l0,2.982l11.988,-0l0,-2.982c0,-0.548 0.451,-0.999 0.999,-0.999l2.997,0l-0,-11.988l-2.997,-0Z" style="fill:#fff;fill-opacity:0.7;fill-rule:nonzero;"/></g><g id="SHOW_ON_CAGE_ON"><path id="path6000" d="M66.933,1.998c-0.548,0 -0.999,0.451 -0.999,0.999l0,5.994c0,0.548 0.451,0.999 0.999,0.999l1.897,0l7.094,13.241l0,5.74c0,0.548 0.451,0.999 0.999,0.999l5.994,0c0.548,0 0.999,-0.451 0.999,-0.999l0,-5.74l7.094,-13.241l1.897,0c0.548,-0 0.999,-0.451 0.999,-0.999l0,-5.994c-0,-0.548 -0.451,-0.999 -0.999,-0.999l-5.994,-0c-0.548,0 -0.999,0.451 -0.999,0.999l0,0.999l-11.988,0l-0,-0.999c-0,-0.548 -0.451,-0.999 -0.999,-0.999l-5.994,-0Zm6.993,3.996l11.988,0l0,2.997c0,0.548 0.451,0.999 0.999,0.999l1.826,0l-6.423,11.988l-4.792,0l-6.423,-11.988l1.826,0c0.548,-0 0.999,-0.451 0.999,-0.999l-0,-2.997Z" style="fill:#fff;"/></g><g id="SHOW_ON_CAGE_OFF" opacity="0.6"><path id="path60001" serif:id="path6000" d="M98.901,1.998c-0.548,0 -0.999,0.451 -0.999,0.999l0,5.994c0,0.548 0.451,0.999 0.999,0.999l1.897,0l7.094,13.241l0,5.74c0,0.548 0.451,0.999 0.999,0.999l5.994,0c0.548,0 0.999,-0.451 0.999,-0.999l-0,-5.74l7.095,-13.241l1.896,0c0.548,-0 0.999,-0.451 0.999,-0.999l0,-5.994c0,-0.548 -0.451,-0.999 -0.999,-0.999l-5.994,-0c-0.548,0 -0.999,0.451 -0.999,0.999l0,0.999l-11.988,0l0,-0.999c-0,-0.548 -0.451,-0.999 -0.999,-0.999l-5.994,-0Zm0.999,1.998l3.996,0l-0,3.996l-3.996,-0l0,-3.996Zm19.98,0l3.996,0l0,3.996l-3.996,-0l0,-3.996Zm-13.986,1.998l11.988,0l0,2.997c0,0.548 0.451,0.999 0.999,0.999l1.826,0l-6.423,11.988l-4.792,0l-6.423,-11.988l1.826,0c0.548,-0 0.999,-0.451 0.999,-0.999l0,-2.997Zm3.996,17.982l3.996,0l0,3.996l-3.996,0l0,-3.996Z" style="fill:#fff;"/></g><g id="SHOW_ON_CAGE_ON_INACTIVE"><path d="M88.421,46.79l-3.679,2.628l-2.426,4.528l-3.912,0l-2.48,1.771l0,5.222c0,0.548 0.451,0.999 0.999,0.999l5.994,-0c0.548,-0 0.999,-0.451 0.999,-0.999l0,-5.74l4.505,-8.409Zm-16.102,1.681l-3.489,-6.513l-1.897,0c-0.548,0 -0.999,-0.451 -0.999,-0.999l0,-5.994c0,-0.548 0.451,-0.999 0.999,-0.999l5.994,0c0.548,0 0.999,0.451 0.999,0.999l-0,0.999l11.988,0l0,-0.999c0,-0.548 0.451,-0.999 0.999,-0.999l5.713,0l-6.712,4.794l0,-0.798l-11.988,-0l-0,2.997c-0,0.548 -0.451,0.999 -0.999,0.999l-1.826,0l2.861,5.339l-1.643,1.174Z" style="fill:#fff;fill-opacity:0.8;"/><path d="M65.934,57.942l27.972,-19.98" style="fill:none;stroke:#fff;stroke-opacity:0.6;stroke-width:4px;"/></g><g id="SHOW_ON_CAGE_OFF_INACTIVE"><path d="M121.182,45.31l-5.298,9.889l-0,5.74c-0,0.548 -0.451,0.999 -0.999,0.999l-5.994,-0c-0.548,-0 -0.999,-0.451 -0.999,-0.999l0,-5.74l-0.153,-0.286l1.642,-1.174l0.111,0.207l4.792,0l3.219,-6.008l3.679,-2.628Zm-11.292,10.634l3.996,-0l0,3.996l-3.996,0l0,-3.996Zm-5.957,-8.134l-3.135,-5.852l-1.897,0c-0.548,0 -0.999,-0.451 -0.999,-0.999l0,-5.994c0,-0.548 0.451,-0.999 0.999,-0.999l5.994,0c0.548,0 0.999,0.451 0.999,0.999l0,0.999l11.988,0l0,-0.999c0,-0.548 0.451,-0.999 0.999,-0.999l4.433,0l-2.797,1.998l-0.637,0l0,0.455l-2.16,1.543l-11.826,-0l0,2.997c-0,0.548 -0.451,0.999 -0.999,0.999l-1.826,0l2.507,4.679l-1.643,1.173Zm-4.033,-11.846l3.996,0l-0,3.996l-3.996,0l0,-3.996Z" style="fill:#fff;fill-opacity:0.6;"/><path d="M97.902,57.028l27.972,-19.98" style="fill:none;stroke:#fff;stroke-opacity:0.6;stroke-width:4px;"/></g><g id="SHOW_ON_CAGE_ON_INACTIVE_BUTTON"><path id="path60002" serif:id="path6000" d="M66.933,65.934c-0.548,0 -0.999,0.451 -0.999,0.999l0,5.994c0,0.548 0.451,0.999 0.999,0.999l1.897,-0l7.094,13.241l0,5.74c0,0.548 0.451,0.999 0.999,0.999l5.994,0c0.548,-0 0.999,-0.451 0.999,-0.999l0,-5.74l7.094,-13.241l1.897,-0c0.548,-0 0.999,-0.451 0.999,-0.999l0,-5.994c-0,-0.548 -0.451,-0.999 -0.999,-0.999l-5.994,0c-0.548,0 -0.999,0.451 -0.999,0.999l0,0.999l-11.988,-0l-0,-0.999c-0,-0.548 -0.451,-0.999 -0.999,-0.999l-5.994,0Zm6.993,3.996l11.988,0l0,2.997c0,0.548 0.451,0.999 0.999,0.999l1.826,-0l-6.423,11.988l-4.792,0l-6.423,-11.988l1.826,-0c0.548,-0 0.999,-0.451 0.999,-0.999l-0,-2.997Z" style="fill:#fff;fill-opacity:0.7;"/></g><g id="USE_APPLY_ON_SPLINE_ON"><path d="M157.842,3.996l-19.98,0l0,5.994c0,3.027 -3.649,4.142 -4.995,5.385c-2.609,2.409 -2.997,4.666 -2.997,7.602l0,3.996c0,0.265 0.105,0.519 0.293,0.706c0.187,0.188 0.441,0.293 0.706,0.293l18.981,0c0,0 -0.014,-1.704 0.007,-5.994c0.014,-2.799 3.363,-4.045 4.988,-4.995c2.441,-1.426 2.997,-4.697 2.997,-7.992l0,-4.995Zm-1.998,1.998l0,2.997c0,1.436 -0.104,2.869 -0.491,4.096c-0.288,0.913 -0.725,1.709 -1.516,2.171c-1.075,0.629 -2.815,1.406 -4.054,2.569c-1.144,1.075 -1.915,2.43 -1.924,4.141c-0.009,1.739 -0.012,3.055 -0.012,4.006l-15.979,-0l0,-2.997c0,-2.361 0.257,-4.197 2.355,-6.134c0.808,-0.747 2.446,-1.448 3.627,-2.543c1.185,-1.099 2.01,-2.487 2.01,-4.31l-0,-3.996l15.984,0Z" style="fill:#fff;"/><path d="M153.846,22.937c0,-0.529 -0.43,-0.959 -0.959,-0.959l-6.074,0c-0.529,0 -0.959,0.43 -0.959,0.959l0,6.074c0,0.529 0.43,0.959 0.959,0.959l6.074,0c0.529,0 0.959,-0.43 0.959,-0.959l0,-6.074Z" style="fill:#fff;"/><path d="M141.851,2.957c0,-0.529 -0.429,-0.959 -0.959,-0.959l-6.074,-0c-0.529,-0 -0.959,0.43 -0.959,0.959l0,6.074c0,0.529 0.43,0.959 0.959,0.959l6.074,0c0.53,0 0.959,-0.43 0.959,-0.959l0,-6.074Z" style="fill:#fff;"/></g><g id="USE_APPLY_ON_SPLINE_OFF" opacity="0.6"><path d="M171.828,9.974c0,1.824 -0.825,3.212 -2.01,4.31c-1.181,1.096 -2.819,1.797 -3.627,2.543c-2.098,1.937 -2.355,3.773 -2.355,6.134l0,2.997l13.986,0l0,1.999l-14.985,-0c-0.265,-0 -0.519,-0.106 -0.706,-0.293c-0.188,-0.187 -0.293,-0.442 -0.293,-0.707l0,-3.996c0,-2.936 0.389,-5.192 2.997,-7.601c1.346,-1.244 4.995,-2.359 4.995,-5.386l1.998,0Zm1.991,-5.993l15.991,-0l0,4.994c0,3.296 -0.556,6.566 -2.997,7.992c-1.625,0.95 -4.974,2.196 -4.988,4.995l-1.998,0l-0,-0.01c0.008,-1.71 0.78,-3.066 1.924,-4.14c1.239,-1.163 2.979,-1.941 4.054,-2.57c0.791,-0.462 1.229,-1.258 1.517,-2.171c0.387,-1.227 0.49,-2.659 0.49,-4.096l0,-2.996l-13.993,-0l0,-1.998Z" style="fill:#fff;"/><path d="M173.819,2.941c0,-0.529 -0.429,-0.959 -0.959,-0.959l-6.074,0c-0.529,0 -0.959,0.43 -0.959,0.959l0,6.074c0,0.53 0.43,0.959 0.959,0.959l6.074,0c0.53,0 0.959,-0.429 0.959,-0.959l0,-6.074Zm-1.991,1.055l-3.996,0l0,3.996l3.996,-0l0,-3.996Z" style="fill:#fff;"/><path d="M185.814,22.921c0,-0.529 -0.429,-0.959 -0.959,-0.959l-6.074,0c-0.529,0 -0.959,0.43 -0.959,0.959l0,6.075c0,0.529 0.43,0.959 0.959,0.959l6.074,-0c0.53,-0 0.959,-0.43 0.959,-0.959l0,-6.075Zm-1.998,1.055l-3.996,0l0,3.996l3.996,0l0,-3.996Z" style="fill:#fff;"/></g><g id="TOGGLE_ALL_MODIFIERS_VISIBILITY"><path id="path10850" d="M3.011,161.838l-0.014,0c-0.548,0 -0.999,0.486 -0.999,1.076c-0,0.59 0.451,1.076 0.999,1.076l21.964,-0c0.005,-0 0.01,0 0.015,0c0.547,0 0.998,-0.486 0.998,-1.076c-0,-0.59 -0.451,-1.076 -0.998,-1.076c-0.005,0 -0.01,0 -0.015,0l-21.95,0Zm-0,6.455l-0.014,0c-0.548,0 -0.999,0.486 -0.999,1.076c-0,0.59 0.451,1.076 0.999,1.076l21.964,0c0.005,0 0.01,0 0.015,0c0.547,0 0.998,-0.485 0.998,-1.076c-0,-0.59 -0.451,-1.076 -0.998,-1.076c-0.005,0 -0.01,0 -0.015,0l-21.95,0Zm-0,6.455l-0.014,0c-0.548,0 -0.999,0.486 -0.999,1.076c-0,0.59 0.451,1.076 0.999,1.076c0.004,0 0.009,0 0.014,-0l5.98,0l0.015,0c0.547,0 0.998,-0.485 0.998,-1.076c0,-0.59 -0.451,-1.076 -0.998,-1.076c-0.005,0 -0.01,0 -0.015,0.001l-5.98,-0.001Zm-0,6.455l-0.014,0c-0.548,0 -0.999,0.486 -0.999,1.076c-0,0.59 0.451,1.076 0.999,1.076c0.004,0 0.009,0 0.014,-0l1.971,0l0.014,0c0.547,0 0.998,-0.486 0.998,-1.076c0,-0.59 -0.451,-1.076 -0.998,-1.076c-0.005,0 -0.01,0 -0.014,0l-1.971,0Zm-0,6.455c-0.005,0 -0.01,0 -0.014,0c-0.548,0 -0.999,0.486 -0.999,1.076c-0,0.59 0.451,1.076 0.999,1.076c0.004,0 0.009,0 0.014,-0l5.966,-0c0.005,0 0.01,0 0.014,0c0.548,0 0.999,-0.486 0.999,-1.076c0,-0.59 -0.451,-1.076 -0.999,-1.076c-0.004,0 -0.009,0 -0.014,0l-5.966,0Z" style="fill:#fff;fill-opacity:0.5;fill-rule:nonzero;"/><path id="path19347-7" d="M19.881,175.824c-5.093,-0.001 -7.825,4.228 -9.887,6.467c-0.274,0.297 -0.274,0.755 0,1.053c2.063,2.239 4.795,6.463 9.887,6.466c5.092,0.003 7.824,-4.228 9.886,-6.466c0.274,-0.298 0.274,-0.756 -0,-1.053c-2.063,-2.239 -4.794,-6.465 -9.886,-6.467Zm-0,1.554c2.983,-0 5.437,2.455 5.437,5.438c0,2.983 -2.454,5.438 -5.437,5.438c-2.984,-0 -5.438,-2.455 -5.438,-5.438c-0,-2.983 2.454,-5.438 5.438,-5.438Zm-0,3.107c-1.279,0 -2.331,1.052 -2.331,2.331c-0,1.278 1.052,2.33 2.331,2.33c1.278,0 2.33,-1.052 2.33,-2.33c0,-1.279 -1.052,-2.331 -2.33,-2.331Z" style="fill:#fff;fill-rule:nonzero;"/></g><g id="APPLY_ALL_MODIFIERS"><path id="path108501" serif:id="path10850" d="M34.979,161.838l-0.015,0c-0.547,0 -0.998,0.486 -0.998,1.076c0,0.59 0.451,1.076 0.998,1.076l21.965,-0c0.005,-0 0.01,0 0.014,0c0.548,0 0.999,-0.486 0.999,-1.076c0,-0.59 -0.451,-1.076 -0.999,-1.076c-0.004,0 -0.009,0 -0.014,0l-21.95,0Zm-0,6.455l-0.015,0c-0.547,0 -0.998,0.486 -0.998,1.076c0,0.59 0.451,1.076 0.998,1.076c0.005,0 0.01,0 0.015,-0l21.95,0l0.014,0c0.548,0 0.999,-0.485 0.999,-1.076c0,-0.59 -0.451,-1.076 -0.999,-1.076c-0.004,0 -0.009,0 -0.014,0l-21.95,0Zm17.969,6.455l-17.984,0c-0.547,0 -0.998,0.486 -0.998,1.076c0,0.59 0.451,1.076 0.998,1.076c0.005,0 0.01,0 0.015,-0l17.955,0l0.014,0c0.547,0 0.998,-0.486 0.998,-1.076c0,-0.59 -0.451,-1.076 -0.998,-1.076Zm-17.969,6.455c-0.005,-0 -0.01,-0 -0.015,-0c-0.547,-0 -0.998,0.486 -0.998,1.076c0,0.59 0.451,1.076 0.998,1.076l5.996,-0c0.547,-0 0.998,-0.486 0.998,-1.076c0,-0.59 -0.451,-1.076 -0.998,-1.076c-0.005,-0 -0.01,-0 -0.014,0l-5.967,0Zm-0,6.455c-0.005,0 -0.01,0 -0.015,0c-0.547,0 -0.998,0.486 -0.998,1.076c0,0.59 0.451,1.076 0.998,1.076l7.979,-0c0.005,0 0.01,0 0.014,0c0.548,0 0.999,-0.486 0.999,-1.076c-0,-0.59 -0.451,-1.076 -0.999,-1.076l-7.978,0Z" style="fill:#fff;fill-opacity:0.5;fill-rule:nonzero;"/><path d="M47.448,183.347l4.5,4.951l8.487,-10.966" style="fill:none;stroke:#fff;stroke-width:3px;"/></g><g id="DELETE_ALL_MODIFIERS"><path id="path108502" serif:id="path10850" d="M66.946,161.838l-0.013,0c-0.548,0 -0.999,0.486 -0.999,1.076c0,0.59 0.451,1.076 0.999,1.076l21.965,-0c0.004,-0 0.009,0 0.014,0c0.547,0 0.998,-0.486 0.998,-1.076c0,-0.59 -0.451,-1.076 -0.998,-1.076c-0.005,0 -0.01,0 -0.014,0l-21.952,0Zm0,6.455l-0.013,0c-0.548,0 -0.999,0.486 -0.999,1.076c0,0.59 0.451,1.076 0.999,1.076l21.965,0c0.004,0 0.009,0 0.014,0c0.547,0 0.998,-0.485 0.998,-1.076c0,-0.59 -0.451,-1.076 -0.998,-1.076c-0.005,0 -0.01,0 -0.014,0l-21.952,0Zm0,6.455l-0.013,0c-0.548,0 -0.999,0.486 -0.999,1.076c0,0.59 0.451,1.076 0.999,1.076c0.004,0 0.009,0 0.013,-0l7.973,0l0.014,0c0.548,0 0.998,-0.485 0.998,-1.076c0,-0.59 -0.45,-1.076 -0.998,-1.076c-0.005,0 -0.01,0 -0.014,0.001l-7.973,-0.001Zm0,6.455l-0.013,0c-0.548,0 -0.999,0.486 -0.999,1.076c0,0.59 0.451,1.076 0.999,1.076c0.004,0 0.009,0 0.013,-0l9.964,0l0.014,0c0.547,0 0.998,-0.486 0.998,-1.076c0,-0.59 -0.451,-1.076 -0.998,-1.076c-0.005,0 -0.01,0 -0.014,0l-9.964,0Zm0,6.455c-0.004,0 -0.009,0 -0.013,0c-0.548,0 -0.999,0.486 -0.999,1.076c0,0.59 0.451,1.076 0.999,1.076c0.004,0 0.009,0 0.013,-0l7.98,-0c0.547,-0 0.998,-0.486 0.998,-1.076c0,-0.59 -0.451,-1.076 -0.998,-1.076l-0.015,0l-7.965,0Z" style="fill:#fff;fill-opacity:0.5;fill-rule:nonzero;"/><path d="M81.417,188.298l10.979,-10.966" style="fill:none;stroke:#fff;stroke-width:3px;"/><path d="M81.417,177.323l10.979,10.978" style="fill:none;stroke:#fff;stroke-width:3px;"/></g><g id="APPLY_MODIFIER"><path d="M3.996,144.825l8.308,9.021l15.668,-19.98" style="fill:none;stroke:#fff;stroke-width:4px;"/></g><g id="APPLY_MODIFIER_AS_SHAPEKEY"><g><path id="path20447" d="M48.231,141.858c0.151,-0 0.296,-0.06 0.403,-0.167l1.149,-1.149c0.107,-0.107 0.167,-0.252 0.167,-0.403l-0,-5.703c-0,-0.315 -0.255,-0.57 -0.57,-0.57l-5.703,-0c-0.151,-0 -0.296,0.06 -0.403,0.167l-1.149,1.149c-0.107,0.107 -0.167,0.252 -0.167,0.403l0,5.703c0,0.315 0.255,0.57 0.57,0.57l5.703,-0Z" style="fill:#fff;fill-opacity:0.7;fill-rule:nonzero;"/><path id="path20449" d="M33.975,146.844l-0.009,-9.475c0,-0.189 0.075,-0.37 0.209,-0.504l6.775,-6.775c0.134,-0.134 0.315,-0.209 0.504,-0.209l11.779,-0.011c0.391,0 0.713,0.322 0.713,0.713l-0.009,9.286l-1.428,1.428l0.01,-10.001l-10.77,0.011l-6.357,6.358l0.006,7.756l-1.423,1.423Z" style="fill:#fff;fill-rule:nonzero;"/></g><path d="M40.959,148.803l6.597,7.041l12.542,-11.988" style="fill:none;stroke:#fff;stroke-width:4px;"/></g><g id="SAVE_MODIFIER_AS_SHAPEKEY"><g><path id="path204491" serif:id="path20449" d="M71.928,149.844l-5.272,-0.005c-0.389,-0.002 -0.709,-0.322 -0.71,-0.711l-0.012,-11.759c0,-0.189 0.075,-0.37 0.209,-0.504l6.775,-6.775c0.134,-0.134 0.315,-0.209 0.504,-0.209l11.779,-0.011c0.391,0 0.713,0.322 0.713,0.713l-0.005,5.281l-1.427,0l0.005,-4.568l-10.77,0.011l-6.357,6.358l0.009,10.75l4.559,0.004l0,1.425Z" style="fill:#fff;fill-rule:nonzero;"/><path id="path204471" serif:id="path20447" d="M78.636,141.858l3.282,-3.83l0,-3.592c0,-0.315 -0.255,-0.57 -0.57,-0.57l-5.703,-0c-0.151,-0 -0.296,0.06 -0.403,0.167l-1.149,1.149c-0.107,0.107 -0.167,0.252 -0.167,0.403l-0,5.703c-0,0.315 0.255,0.57 0.57,0.57l4.14,-0Z" style="fill:#fff;fill-opacity:0.7;fill-rule:nonzero;"/></g><path d="M91.908,149.85l-13.986,0" style="fill:none;stroke:#fff;stroke-width:4px;"/><path d="M84.915,156.843l0,-13.986" style="fill:none;stroke:#fff;stroke-width:4px;"/></g><g id="ADD_GIZMO"><path id="path13640-7-5" d="M22.977,225.774c-3.862,0 -6.993,3.131 -6.993,6.993c0,3.862 3.131,6.993 6.993,6.993c3.862,0 6.993,-3.131 6.993,-6.993c0,-3.862 -3.131,-6.993 -6.993,-6.993Zm-0.999,1.998l1.998,0l0,3.996l3.996,0l0,1.998l-3.996,0l0,3.996l-1.998,0l0,-3.996l-3.996,0l0,-1.998l3.996,0l0,-3.996Z" style="fill:#fff;fill-rule:nonzero;"/><path id="path12965-4-0" d="M8.921,232.174c-0.2,0.004 -0.391,0.085 -0.533,0.226l-3.081,3.082c-0.151,0.145 -0.237,0.346 -0.237,0.555c-0,0.423 0.348,0.771 0.771,0.771c0.209,-0 0.41,-0.086 0.555,-0.237l1.766,-1.766l0,11.688l-4.622,4.623l0,-2.775c0,-0.423 -0.348,-0.77 -0.771,-0.77c-0.003,-0 -0.008,-0 -0.012,-0c-0.418,0.006 -0.758,0.352 -0.758,0.77l0,4.635c0,0.423 0.348,0.77 0.77,0.77l4.623,0c0.004,0 0.007,0 0.011,0c0.423,0 0.77,-0.347 0.77,-0.77c0,-0.423 -0.347,-0.771 -0.77,-0.771l-2.774,0l4.623,-4.622l11.689,-0l-1.767,1.766c-0.151,0.146 -0.236,0.346 -0.236,0.556c-0,0.423 0.347,0.77 0.77,0.77c0.209,0 0.411,-0.085 0.556,-0.236l3.081,-3.082c0.299,-0.299 0.299,-0.791 0,-1.089l-3.081,-3.082c-0.145,-0.15 -0.346,-0.235 -0.554,-0.235c-0.423,0 -0.77,0.348 -0.77,0.771c-0,0.208 0.084,0.408 0.234,0.553l1.767,1.767l-11.238,-0l0,-11.237l1.767,1.766c0.145,0.151 0.346,0.237 0.555,0.237c0.423,-0 0.771,-0.348 0.771,-0.771c-0,-0.209 -0.085,-0.41 -0.237,-0.555l-3.081,-3.082c-0.148,-0.147 -0.349,-0.229 -0.557,-0.226Z" style="fill:#fff;fill-rule:nonzero;"/></g></svg>