<?xml version="1.0" encoding="UTF-8" standalone="no"?><!DOCTYPE svg PUBLIC "-//W3C//DTD SVG 1.1//EN" "http://www.w3.org/Graphics/SVG/1.1/DTD/svg11.dtd"><svg width="100%" height="100%" viewBox="0 0 1334 1334" version="1.1" xmlns="http://www.w3.org/2000/svg" xmlns:xlink="http://www.w3.org/1999/xlink" xml:space="preserve" xmlns:serif="http://www.serif.com/" style="fill-rule:evenodd;clip-rule:evenodd;stroke-linecap:round;stroke-linejoin:round;stroke-miterlimit:1.5;"><rect x="0" y="0" width="1333.33" height="1333.33" style="fill:#2b2b2b;"/><g id="SHOW_IN_EDITMODE_ON"><path id="path12257" d="M37.5,125l-25,-0c-2.286,-0 -4.166,-1.881 -4.167,-4.167l0,-25c0.001,-2.285 1.881,-4.166 4.167,-4.166l4.167,-0l-0,-50l-4.167,-0c-2.286,-0.001 -4.166,-1.881 -4.167,-4.167l0,-25c0.001,-2.286 1.881,-4.166 4.167,-4.167l25,0c2.286,0.001 4.166,1.881 4.167,4.167l-0,4.102l37.5,-0c0.046,-0.001 12.5,0.064 12.5,0.064l-0,-4.166c-0,-2.286 1.881,-4.166 4.166,-4.167l25,0c2.286,0.001 4.167,1.881 4.167,4.167l0,25c-0,2.286 -1.881,4.166 -4.167,4.167l-4.166,-0l-0,50l4.166,-0c2.286,0 4.167,1.881 4.167,4.166l0,25c-0,2.286 -1.881,4.167 -4.167,4.167l-25,-0c-2.285,-0 -4.166,-1.881 -4.166,-4.167l-0,-4.231l-50,-0l-0,4.231c-0.001,2.286 -1.881,4.167 -4.167,4.167Zm58.333,-83.333c-2.285,-0.001 -4.166,-1.881 -4.166,-4.167l-0,-12.5l-0.059,-0l-49.941,-0.065l-0,12.565c-0.001,2.286 -1.881,4.166 -4.167,4.167l-12.5,-0l0,50l12.5,-0c2.286,0 4.166,1.881 4.167,4.166l-0,12.435l50,0l-0,-12.435c-0,-2.285 1.881,-4.166 4.166,-4.166l12.5,-0l0,-50l-12.5,-0Z" style="fill:#fff;fill-rule:nonzero;"/></g><g id="SHOW_IN_EDITMODE_OFF"><path id="path122571" serif:id="path12257" d="M170.833,125l-25,0c-2.285,-0 -4.166,-1.881 -4.166,-4.167l-0,-25c-0,-2.285 1.881,-4.166 4.166,-4.166l4.167,-0l0,-50l-4.167,-0c-2.285,-0.001 -4.166,-1.881 -4.166,-4.167l-0,-25c-0,-2.286 1.881,-4.166 4.166,-4.167l25,0c2.286,0.001 4.167,1.881 4.167,4.167l0,4.102l37.5,-0c0.046,-0.001 12.5,0.064 12.5,0.064l0,-4.166c0,-2.286 1.881,-4.166 4.167,-4.167l25,0c2.285,0.001 4.166,1.881 4.166,4.167l0,25c0,2.286 -1.88,4.166 -4.166,4.167l-4.167,-0l0,50l4.167,-0c2.286,0 4.166,1.881 4.166,4.166l0,25c0,2.286 -1.88,4.167 -4.166,4.167l-25,-0c-2.286,-0 -4.167,-1.881 -4.167,-4.167l0,-4.231l-50,-0l-0,4.231c-0,2.286 -1.881,4.167 -4.167,4.167Zm79.167,-25l-16.667,-0l0,11.784c0.072,0.442 0.072,0.893 0,1.334l0,3.549l16.667,-0l0,-16.667Zm-83.333,-0l-16.667,-0l-0,16.667l16.667,-0l-0,-16.667Zm62.5,-58.333c-2.286,-0.001 -4.167,-1.881 -4.167,-4.167l0,-12.5l-0.059,-0l-49.941,-0.065l-0,12.565c-0,2.286 -1.881,4.166 -4.167,4.167l-12.5,-0l0,50l12.5,-0c2.286,0 4.167,1.881 4.167,4.166l-0,12.435l50,0l0,-12.435c0,-2.285 1.881,-4.166 4.167,-4.166l12.5,-0l-0,-50l-12.5,-0Zm20.833,-25l-16.667,-0l0,16.666l11.784,0c0.442,-0.071 0.893,-0.071 1.335,0l3.548,0l0,-16.666Zm-83.333,-0l-16.667,-0l-0,16.666l16.667,0l-0,-16.666Z" style="fill:#fff;fill-opacity:0.6;fill-rule:nonzero;"/></g><g id="SHOW_IN_EDITMODE_ON_INACTIVE"><path d="M119.659,141.667l-23.826,-0c-2.285,-0 -4.166,1.881 -4.166,4.166l-0,4.166c-0,0 -12.454,-0.064 -12.5,-0.064l-37.5,-0l-0,-4.102c-0.001,-2.285 -1.881,-4.166 -4.167,-4.166l-25,-0c-2.286,-0 -4.166,1.881 -4.167,4.166l0,25c0.001,2.286 1.881,4.167 4.167,4.167l4.167,0l-0,40.233l8.333,-5.953l0,-34.28l12.5,0c2.286,-0 4.166,-1.881 4.167,-4.167l-0,-12.565l50,0.065l-0,3.328l27.992,-19.994Zm-105.985,116.666l23.826,0c2.286,-0 4.166,-1.881 4.167,-4.166l-0,-4.232l50,-0l-0,4.232c-0,2.285 1.881,4.166 4.166,4.166l25,0c2.286,-0 4.167,-1.881 4.167,-4.166l0,-25c-0,-2.286 -1.881,-4.167 -4.167,-4.167l-4.166,-0l-0,-40.233l-8.334,5.953l0,34.28l-12.5,-0c-2.285,0 -4.166,1.881 -4.166,4.167l-0,12.435l-50,-0l-0,-3.263l-27.993,19.994Z" style="fill:#fff;fill-opacity:0.8;"/><path d="M8.333,241.667l116.667,-83.334" style="fill:none;stroke:#fff;stroke-opacity:0.6;stroke-width:16.67px;"/></g><g id="SHOW_IN_EDITMODE_OFF_INACTIVE"><path d="M251.83,141.667l-22.663,-0c-2.286,-0 -4.167,1.881 -4.167,4.166l0,4.166c0,0 -12.454,-0.064 -12.5,-0.064l-37.5,-0l0,-4.102c-0,-2.285 -1.881,-4.166 -4.167,-4.166l-25,-0c-2.285,-0 -4.166,1.881 -4.166,4.166l-0,25c-0,2.286 1.881,4.167 4.166,4.167l4.167,0l0,39.402l8.333,-5.952l0,-33.45l12.5,0c2.286,-0 4.167,-1.881 4.167,-4.167l0,-12.565l50,0.065l0,2.498l8.333,-5.952l0,-4.879l6.83,0l11.667,-8.333Zm-105.984,116.666l24.987,0c2.286,-0 4.167,-1.881 4.167,-4.166l0,-4.232l50,-0l0,4.232c0,2.285 1.881,4.166 4.167,4.166l25,0c2.286,-0 4.166,-1.881 4.166,-4.166l0,-25c0,-2.286 -1.88,-4.167 -4.166,-4.167l-4.167,0l-0,-41.063l-8.333,5.953l-0,35.11l-12.5,0c-2.286,0 -4.167,1.881 -4.167,4.167l-0,12.435l-50,-0l-0,-4.093l-8.333,5.952l-0,6.539l-9.155,0l-11.666,8.333Zm20.821,-108.333l-16.667,0l-0,16.667l16.667,-0l-0,-16.667Zm83.333,100l-0,-16.667l-16.667,0l0,16.667l16.667,0Z" style="fill:#fff;fill-opacity:0.6;"/><path d="M141.667,241.667l116.666,-83.334" style="fill:none;stroke:#fff;stroke-opacity:0.6;stroke-width:16.67px;"/></g><g id="SHOW_IN_EDITMODE_ON_INACTIVE_BUTTON"><path id="path122572" serif:id="path12257" d="M37.5,391.667l-25,-0c-2.286,-0.001 -4.166,-1.881 -4.167,-4.167l0,-25c0.001,-2.286 1.881,-4.166 4.167,-4.167l4.167,0l-0,-50l-4.167,0c-2.286,0 -4.166,-1.881 -4.167,-4.166l0,-25c0.001,-2.286 1.881,-4.167 4.167,-4.167l25,-0c2.286,0 4.166,1.881 4.167,4.167l-0,4.101l37.5,0c0.046,0 12.5,0.065 12.5,0.065l-0,-4.166c-0,-2.286 1.881,-4.167 4.166,-4.167l25,-0c2.286,0 4.167,1.881 4.167,4.167l0,25c-0,2.285 -1.881,4.166 -4.167,4.166l-4.166,0l-0,50l4.166,0c2.286,0.001 4.167,1.881 4.167,4.167l0,25c-0,2.286 -1.881,4.166 -4.167,4.167l-25,-0c-2.285,-0.001 -4.166,-1.881 -4.166,-4.167l-0,-4.232l-50,0l-0,4.232c-0.001,2.286 -1.881,4.166 -4.167,4.167Zm58.333,-83.334c-2.285,0 -4.166,-1.881 -4.166,-4.166l-0,-12.5l-0.059,-0.001l-49.941,-0.064l-0,12.565c-0.001,2.285 -1.881,4.166 -4.167,4.166l-12.5,0l0,50l12.5,0c2.286,0.001 4.166,1.881 4.167,4.167l-0,12.435l50,-0l-0,-12.435c-0,-2.286 1.881,-4.166 4.166,-4.167l12.5,0l0,-50l-12.5,0Z" style="fill:#fff;fill-opacity:0.7;fill-rule:nonzero;"/></g><g id="SHOW_ON_CAGE_ON"><path id="path6000" d="M279.167,8.333c-2.286,0.001 -4.167,1.881 -4.167,4.167l-0,25c0,2.286 1.881,4.166 4.167,4.167l7.91,-0l29.59,55.224l-0,23.942c-0,2.286 1.881,4.167 4.166,4.167l25,-0c2.286,-0 4.167,-1.881 4.167,-4.167l0,-23.942l29.59,-55.224l7.91,-0c2.286,-0.001 4.166,-1.881 4.167,-4.167l-0,-25c-0.001,-2.286 -1.881,-4.166 -4.167,-4.167l-25,0c-2.286,0.001 -4.166,1.881 -4.167,4.167l0,4.167l-50,-0l0,-4.167c0,-2.286 -1.881,-4.166 -4.166,-4.167l-25,0Zm29.166,16.667l50,-0l0,12.5c0.001,2.286 1.881,4.166 4.167,4.167l7.617,-0l-26.79,50l-19.987,-0l-26.791,-50l7.618,-0c2.285,-0.001 4.166,-1.881 4.166,-4.167l0,-12.5Z" style="fill:#fff;"/></g><g id="SHOW_ON_CAGE_OFF" opacity="0.6"><path id="path60001" serif:id="path6000" d="M412.5,8.333c-2.286,0.001 -4.166,1.881 -4.167,4.167l0,25c0.001,2.286 1.881,4.166 4.167,4.167l7.91,-0l29.59,55.224l0,23.942c0,2.286 1.881,4.167 4.167,4.167l25,0c2.285,-0 4.166,-1.881 4.166,-4.167l0,-23.942l29.59,-55.224l7.91,-0c2.286,-0.001 4.167,-1.881 4.167,-4.167l0,-25c-0,-2.286 -1.881,-4.166 -4.167,-4.167l-25,0c-2.285,0.001 -4.166,1.881 -4.166,4.167l-0,4.167l-50,-0l-0,-4.167c-0.001,-2.286 -1.881,-4.166 -4.167,-4.167l-25,0Zm4.167,8.334l16.666,-0l0,16.666l-16.666,0l-0,-16.666Zm83.333,-0l16.667,-0l-0,16.666l-16.667,0l0,-16.666Zm-58.333,8.333l50,0l-0,12.5c-0,2.286 1.881,4.166 4.166,4.167l7.618,-0l-26.791,50l-19.987,-0l-26.79,-50l7.617,-0c2.286,-0.001 4.166,-1.881 4.167,-4.167l-0,-12.5Zm16.666,75l16.667,0l0,16.667l-16.667,-0l0,-16.667Z" style="fill:#fff;"/></g><g id="SHOW_ON_CAGE_ON_INACTIVE"><path d="M368.791,195.155l-15.346,10.961l-10.118,18.884l-16.319,0l-10.341,7.386l-0,21.781c-0,2.285 1.881,4.166 4.166,4.166l25,0c2.286,0 4.167,-1.881 4.167,-4.166l0,-23.942l18.791,-35.07Zm-67.16,7.008l-14.554,-27.163l-7.91,-0c-2.286,-0 -4.167,-1.881 -4.167,-4.167l0,-25c0,-2.285 1.881,-4.166 4.167,-4.166l25,-0c2.285,-0 4.166,1.881 4.166,4.166l0,4.167l50,-0l0,-4.167c0.001,-2.285 1.881,-4.166 4.167,-4.166l23.826,-0l-27.993,19.994l0,-3.328l-50,0l0,12.5c0,2.286 -1.881,4.167 -4.166,4.167l-7.618,-0l11.933,22.269l-6.851,4.894Z" style="fill:#fff;fill-opacity:0.8;"/><path d="M275,241.667l116.667,-83.334" style="fill:none;stroke:#fff;stroke-opacity:0.6;stroke-width:16.67px;"/></g><g id="SHOW_ON_CAGE_OFF_INACTIVE"><path d="M505.432,188.98l-22.099,41.245l0,23.942c0,2.285 -1.881,4.166 -4.166,4.166l-25,0c-2.286,0 -4.167,-1.881 -4.167,-4.166l0,-23.942l-0.639,-1.194l6.85,-4.893l0.462,0.862l19.987,0l13.427,-25.058l15.345,-10.962Zm-47.099,44.353l16.667,0l-0,16.667l-16.667,-0l0,-16.667Zm-24.846,-33.927l-13.077,-24.406l-7.91,-0c-2.286,-0 -4.166,-1.881 -4.167,-4.167l0,-25c0.001,-2.285 1.881,-4.166 4.167,-4.166l25,-0c2.286,-0 4.166,1.881 4.167,4.166l-0,4.167l50,-0l-0,-4.167c-0,-2.285 1.881,-4.166 4.166,-4.166l18.49,-0l-11.667,8.333l-2.656,-0l0,1.897l-9.011,6.436l-49.322,0l-0,12.5c-0.001,2.286 -1.881,4.167 -4.167,4.167l-7.617,-0l10.455,19.513l-6.851,4.893Zm-16.82,-49.406l16.666,-0l0,16.667l-16.666,-0l-0,-16.667Z" style="fill:#fff;fill-opacity:0.6;"/><path d="M408.333,237.855l116.667,-83.333" style="fill:none;stroke:#fff;stroke-opacity:0.6;stroke-width:16.67px;"/></g><g id="SHOW_ON_CAGE_ON_INACTIVE_BUTTON"><path id="path60002" serif:id="path6000" d="M279.167,275c-2.286,0 -4.167,1.881 -4.167,4.167l-0,25c0,2.285 1.881,4.166 4.167,4.166l7.91,0l29.59,55.225l-0,23.942c-0,2.286 1.881,4.166 4.166,4.167l25,-0c2.286,-0.001 4.167,-1.881 4.167,-4.167l0,-23.942l29.59,-55.225l7.91,0c2.286,0 4.166,-1.881 4.167,-4.166l-0,-25c-0.001,-2.286 -1.881,-4.167 -4.167,-4.167l-25,-0c-2.286,0 -4.166,1.881 -4.167,4.167l0,4.166l-50,0l0,-4.166c0,-2.286 -1.881,-4.167 -4.166,-4.167l-25,-0Zm29.166,16.667l50,-0l0,12.5c0.001,2.285 1.881,4.166 4.167,4.166l7.617,0l-26.79,50l-19.987,0l-26.791,-50l7.618,0c2.285,0 4.166,-1.881 4.166,-4.166l0,-12.5Z" style="fill:#fff;fill-opacity:0.7;"/></g><g id="USE_APPLY_ON_SPLINE_ON"><path d="M658.333,16.667l-83.333,-0l0,25c0,12.623 -15.218,17.274 -20.833,22.46c-10.88,10.048 -12.5,19.459 -12.5,31.706l-0,16.667c-0,1.105 0.439,2.165 1.22,2.946c0.781,0.782 1.841,1.221 2.946,1.221c16.866,-0 79.167,-0 79.167,-0c-0,-0 -0.061,-7.106 0.028,-25c0.059,-11.676 14.027,-16.872 20.805,-20.834c10.18,-5.949 12.5,-19.588 12.5,-33.333l0,-20.833Zm-8.333,8.333l-0,12.5c-0,5.99 -0.432,11.965 -2.047,17.083c-1.201,3.807 -3.024,7.127 -6.324,9.056c-4.485,2.621 -11.74,5.865 -16.908,10.715c-4.773,4.481 -7.99,10.136 -8.026,17.271c-0.036,7.253 -0.048,12.741 -0.048,16.708l-66.647,0l-0,-12.5c-0,-9.847 1.072,-17.504 9.821,-25.584c3.372,-3.114 10.203,-6.038 15.129,-10.606c4.942,-4.582 8.383,-10.372 8.383,-17.976l0,-16.667l66.667,-0Z" style="fill:#fff;"/><path d="M641.667,95.667c-0,-2.208 -1.793,-4 -4,-4l-25.334,-0c-2.207,-0 -4,1.792 -4,4l0,25.333c0,2.208 1.793,4 4,4l25.334,0c2.207,0 4,-1.792 4,-4l-0,-25.333Z" style="fill:#fff;"/><path d="M591.638,12.333c0,-2.207 -1.792,-4 -4,-4l-25.333,0c-2.208,0 -4,1.793 -4,4l-0,25.334c-0,2.207 1.792,4 4,4l25.333,-0c2.208,-0 4,-1.793 4,-4l0,-25.334Z" style="fill:#fff;"/></g><g id="USE_APPLY_ON_SPLINE_OFF" opacity="0.6"><path d="M716.667,41.602c-0,7.604 -3.442,13.394 -8.383,17.976c-4.927,4.568 -11.758,7.492 -15.13,10.606c-8.748,8.079 -9.821,15.737 -9.821,25.584l0,12.5l58.334,0l-0,8.334l-62.5,-0c-1.105,-0 -2.165,-0.439 -2.947,-1.221c-0.781,-0.781 -1.22,-1.841 -1.22,-2.946l0,-16.667c0,-12.247 1.62,-21.658 12.5,-31.706c5.615,-5.186 20.833,-9.837 20.833,-22.46l8.334,-0Zm8.305,-25l66.695,-0l-0,20.833c-0,13.745 -2.321,27.384 -12.5,33.333c-6.779,3.962 -20.747,9.158 -20.805,20.834l-8.334,-0l0,-0.042c0.036,-7.136 3.253,-12.79 8.027,-17.271c5.167,-4.85 12.422,-8.094 16.907,-10.715c3.3,-1.929 5.124,-5.249 6.325,-9.056c1.614,-5.118 2.046,-11.093 2.046,-17.083l0,-12.5l-58.361,-0l-0,-8.333Z" style="fill:#fff;"/><path d="M724.972,12.268c-0,-2.207 -1.793,-4 -4,-4l-25.334,0c-2.207,0 -4,1.793 -4,4l0,25.334c0,2.207 1.793,4 4,4l25.334,-0c2.207,-0 4,-1.793 4,-4l-0,-25.334Zm-8.305,4.399l-16.667,-0l0,16.666l16.667,0l-0,-16.666Z" style="fill:#fff;"/><path d="M775,95.602c0,-2.208 -1.792,-4 -4,-4l-25.333,-0c-2.208,-0 -4,1.792 -4,4l-0,25.333c-0,2.208 1.792,4 4,4l25.333,-0c2.208,-0 4,-1.792 4,-4l0,-25.333Zm-8.333,4.398l-16.667,-0l0,16.667l16.667,-0l-0,-16.667Z" style="fill:#fff;"/></g><g id="TOGGLE_ALL_MODIFIERS_VISIBILITY"><path id="path10850" d="M12.557,675c-0.02,0 -0.039,0 -0.059,0c-2.285,0 -4.165,2.026 -4.165,4.488c0,2.461 1.88,4.487 4.165,4.487c0.02,0 0.039,0 0.059,-0l91.553,0c0.019,0 0.039,0.001 0.059,0.001c2.284,-0 4.164,-2.026 4.164,-4.488c0,-2.462 -1.88,-4.488 -4.164,-4.488c-0.02,0 -0.04,0.001 -0.059,0.001l-91.553,-0.001Zm-0,26.923c-0.02,0 -0.039,-0 -0.059,-0c-2.285,-0 -4.165,2.026 -4.165,4.487c0,2.462 1.88,4.488 4.165,4.488c0.02,0 0.039,-0 0.059,-0l91.553,0c0.019,0 0.039,0.001 0.059,0.001c2.284,-0 4.164,-2.026 4.164,-4.488c0,-2.462 -1.88,-4.488 -4.164,-4.488c-0.02,0 -0.04,0 -0.059,0.001l-91.553,-0.001Zm-0,26.923c-0.02,-0 -0.039,-0 -0.059,-0c-2.285,-0 -4.165,2.026 -4.165,4.487c0,2.462 1.88,4.488 4.165,4.488c0.02,-0 0.039,-0 0.059,-0.001l24.945,0.001c0.02,0 0.039,0 0.059,0c2.285,0 4.165,-2.025 4.165,-4.487c-0,-2.462 -1.88,-4.488 -4.165,-4.488c-0.02,0 -0.039,0 -0.059,0.001l-24.945,-0.001Zm-0,26.923c-0.02,-0 -0.039,-0 -0.059,-0c-2.285,-0 -4.165,2.025 -4.165,4.487c0,2.462 1.88,4.488 4.165,4.488c0.02,-0 0.039,-0 0.059,-0.001l8.22,0.001c0.019,0 0.039,0 0.058,0c2.285,0 4.165,-2.026 4.165,-4.487c-0,-2.462 -1.88,-4.488 -4.165,-4.488c-0.019,0 -0.039,0 -0.058,0.001l-8.22,-0.001Zm-0,26.923c-0.02,-0 -0.039,-0.001 -0.059,-0.001c-2.285,0 -4.165,2.026 -4.165,4.488c0,2.462 1.88,4.488 4.165,4.488c0.02,-0 0.039,-0 0.059,-0.001l24.886,0c0.02,0.001 0.039,0.001 0.059,0.001c2.285,-0 4.165,-2.026 4.165,-4.488c-0,-2.462 -1.88,-4.488 -4.165,-4.488c-0.02,0 -0.039,0.001 -0.059,0.001l-24.886,-0Z" style="fill:#fff;fill-opacity:0.5;fill-rule:nonzero;"/><path id="path19347-7" d="M82.919,733.333c-21.241,-0.006 -32.634,17.633 -41.235,26.971c-1.143,1.241 -1.143,3.151 -0,4.392c8.602,9.339 19.997,26.957 41.235,26.971c21.241,0.013 32.634,-17.634 41.234,-26.971c1.143,-1.241 1.143,-3.151 0,-4.392c-8.602,-9.339 -19.996,-26.965 -41.234,-26.971Zm-0,6.48l-0,0c12.442,0 22.68,10.239 22.68,22.681l-0,-0c-0,12.442 -10.238,22.68 -22.68,22.68l-0,-0c-12.443,-0 -22.681,-10.238 -22.681,-22.68l0,-0c0,-12.442 10.238,-22.681 22.681,-22.681Zm-0,12.961l-0,-0c-5.333,-0 -9.721,4.387 -9.721,9.72l0,-0c0,5.332 4.388,9.72 9.721,9.72l-0,-0c5.332,-0 9.72,-4.388 9.72,-9.72l-0,-0c-0,-5.333 -4.388,-9.72 -9.72,-9.72Z" style="fill:#fff;fill-rule:nonzero;"/></g><g id="APPLY_ALL_MODIFIERS"><path id="path108501" serif:id="path10850" d="M145.89,675c-0.019,0 -0.039,0 -0.059,0c-2.284,0 -4.164,2.026 -4.164,4.488c-0,2.461 1.88,4.487 4.164,4.487c0.02,0 0.04,0 0.059,-0l91.553,0c0.02,0 0.039,0.001 0.059,0.001c2.285,-0 4.165,-2.026 4.165,-4.488c-0,-2.462 -1.88,-4.488 -4.165,-4.488c-0.02,0 -0.039,0.001 -0.059,0.001l-91.553,-0.001Zm0,26.923c-0.019,-0 -0.039,-0 -0.059,-0c-2.284,-0 -4.164,2.026 -4.164,4.487c-0,2.462 1.88,4.488 4.164,4.488c0.02,-0 0.04,-0 0.059,-0.001l91.553,0.001c0.02,0 0.039,0 0.059,0c2.285,0 4.165,-2.025 4.165,-4.487c-0,-2.462 -1.88,-4.488 -4.165,-4.488c-0.02,0 -0.039,0 -0.059,0.001l-91.553,-0.001Zm0,26.923c-0.019,-0 -0.039,-0 -0.059,-0c-2.284,-0 -4.164,2.025 -4.164,4.487c-0,2.462 1.88,4.488 4.164,4.488c0.02,-0 0.04,-0 0.059,-0.001l74.887,0.001c0.019,-0 0.039,0 0.058,0c2.285,0 4.165,-2.026 4.165,-4.487c-0,-2.462 -1.88,-4.488 -4.165,-4.488c-0.019,-0 -0.039,0 -0.058,0l-74.887,-0Zm0,26.923c-0.019,-0.001 -0.039,-0.001 -0.059,-0.001c-2.284,0 -4.164,2.026 -4.164,4.488c-0,2.462 1.88,4.487 4.164,4.487c0.02,0 0.04,0 0.059,0l24.887,0c0.019,0 0.039,0 0.058,0c2.285,0 4.165,-2.025 4.165,-4.487c-0,-2.462 -1.88,-4.488 -4.165,-4.488c-0.019,0 -0.039,0 -0.058,0.001l-24.887,-0Zm0,26.923c-0.019,-0.001 -0.039,-0.001 -0.059,-0.001c-2.284,0 -4.164,2.026 -4.164,4.488c-0,2.461 1.88,4.487 4.164,4.487c0.02,0 0.04,0 0.059,-0l33.22,0c0.019,0.001 0.039,0.001 0.059,0.001c2.284,-0 4.164,-2.026 4.164,-4.488c0,-2.462 -1.88,-4.487 -4.164,-4.487c-0.02,-0 -0.04,-0 -0.059,-0l-33.22,-0Z" style="fill:#fff;fill-opacity:0.5;fill-rule:nonzero;"/><path d="M197.896,764.709l18.771,20.65l35.396,-45.737" style="fill:none;stroke:#fff;stroke-width:12.5px;"/></g><g id="DELETE_ALL_MODIFIERS"><path id="path108502" serif:id="path10850" d="M279.223,675c-0.019,0 -0.039,0 -0.058,0c-2.285,0 -4.165,2.026 -4.165,4.488c0,2.461 1.88,4.487 4.165,4.487c0.019,0 0.039,0 0.058,-0l91.554,0c0.019,0 0.039,0.001 0.058,0.001c2.285,-0 4.165,-2.026 4.165,-4.488c-0,-2.462 -1.88,-4.488 -4.165,-4.488c-0.019,0 -0.039,0.001 -0.058,0.001l-91.554,-0.001Zm0,26.923c-0.019,0 -0.039,-0 -0.058,-0c-2.285,-0 -4.165,2.026 -4.165,4.487c-0,2.462 1.88,4.488 4.165,4.488c0.019,0 0.039,-0 0.058,-0l91.554,0c0.019,0 0.039,0.001 0.058,0.001c2.285,-0 4.165,-2.026 4.165,-4.488c-0,-2.462 -1.88,-4.488 -4.165,-4.488c-0.019,0 -0.039,0 -0.058,0.001l-91.554,-0.001Zm0,26.923c-0.019,-0 -0.039,-0 -0.058,-0c-2.285,-0 -4.165,2.026 -4.165,4.487c-0,2.462 1.88,4.488 4.165,4.488c0.019,-0 0.039,-0 0.058,-0.001l33.251,0.001c0.019,0 0.039,0 0.059,0c2.284,0 4.164,-2.025 4.164,-4.487c0,-2.462 -1.88,-4.488 -4.164,-4.488c-0.02,0 -0.04,0 -0.059,0.001l-33.251,-0.001Zm0,26.923c-0.019,-0 -0.039,-0 -0.058,-0c-2.285,-0 -4.165,2.025 -4.165,4.487c-0,2.462 1.88,4.488 4.165,4.488c0.019,-0 0.039,-0 0.058,-0.001l41.554,0.001c0.019,0 0.039,0 0.058,0c2.285,0 4.165,-2.026 4.165,-4.487c-0,-2.462 -1.88,-4.488 -4.165,-4.488c-0.019,0 -0.039,0 -0.058,0.001l-41.554,-0.001Zm0,26.923c-0.019,-0 -0.039,-0.001 -0.058,-0.001c-2.285,0 -4.165,2.026 -4.165,4.488c-0,2.462 1.88,4.488 4.165,4.488c0.019,-0 0.039,-0 0.058,-0.001l33.22,-0c0.02,0 0.039,0 0.059,0c2.285,0 4.165,-2.026 4.165,-4.487c-0,-2.462 -1.88,-4.488 -4.165,-4.488c-0.02,0 -0.039,0 -0.059,0l-33.22,0.001Z" style="fill:#fff;fill-opacity:0.5;fill-rule:nonzero;"/><path d="M339.576,785.359l45.794,-45.737" style="fill:none;stroke:#fff;stroke-width:12.5px;"/><path d="M339.576,739.585l45.794,45.785" style="fill:none;stroke:#fff;stroke-width:12.5px;"/></g><g id="APPLY_MODIFIER"><path d="M16.667,604.043l34.652,37.624l65.348,-83.334" style="fill:none;stroke:#fff;stroke-width:16.67px;"/></g><g id="APPLY_MODIFIER_AS_SHAPEKEY"><g><path id="path20447" d="M201.164,591.666c0.631,-0.001 1.236,-0.251 1.682,-0.697l4.791,-4.791c0.446,-0.446 0.696,-1.051 0.696,-1.682l0,-23.785c0,-1.314 -1.065,-2.379 -2.378,-2.379l-23.786,0c-0.63,0 -1.235,0.251 -1.681,0.697l-4.791,4.791c-0.446,0.446 -0.697,1.051 -0.697,1.682l0,23.785c0,1.314 1.065,2.378 2.379,2.379l23.785,-0Z" style="fill:#fff;fill-opacity:0.7;fill-rule:nonzero;"/><path id="path20449" d="M141.705,612.462l-0.038,-39.517c-0,-0.788 0.313,-1.545 0.871,-2.103l28.258,-28.257c0.557,-0.558 1.314,-0.872 2.103,-0.872l49.126,-0.046c1.632,-0 2.975,1.343 2.975,2.974l-0.038,38.73l-5.957,5.957l0.044,-41.714l-44.919,0.047l-26.515,26.515l0.026,32.35l-5.936,5.936Z" style="fill:#fff;fill-rule:nonzero;"/></g><path d="M170.833,620.633l27.513,29.367l52.314,-50" style="fill:none;stroke:#fff;stroke-width:16.67px;"/></g><g id="SAVE_MODIFIER_AS_SHAPEKEY"><g><path id="path204491" serif:id="path20449" d="M300,624.973l-21.99,-0.021c-1.622,-0.006 -2.956,-1.34 -2.962,-2.962l-0.048,-49.045c0,-0.788 0.314,-1.545 0.871,-2.103l28.258,-28.257c0.558,-0.558 1.315,-0.872 2.103,-0.872l49.127,-0.046c1.631,-0 2.974,1.343 2.974,2.974l-0.021,22.026l-5.95,-0l0.02,-19.053l-44.919,0.047l-26.515,26.515l0.036,44.838l19.016,0.015l0,5.944Z" style="fill:#fff;fill-rule:nonzero;"/><path id="path204471" serif:id="path20447" d="M327.977,591.666l13.69,-15.972l-0,-14.983c-0,-1.314 -1.065,-2.379 -2.379,-2.379l-23.785,0c-0.631,0 -1.236,0.251 -1.682,0.697l-4.791,4.791c-0.446,0.446 -0.697,1.051 -0.697,1.682l0,23.785c0,1.314 1.065,2.378 2.379,2.379l17.265,-0Z" style="fill:#fff;fill-opacity:0.7;fill-rule:nonzero;"/></g><path d="M383.333,625l-58.333,0" style="fill:none;stroke:#fff;stroke-width:16.67px;"/><path d="M354.167,654.167l-0,-58.334" style="fill:none;stroke:#fff;stroke-width:16.67px;"/></g><g id="ADD_GIZMO"><path id="path13640-7-5" d="M95.833,941.667c-16.108,-0 -29.166,13.058 -29.166,29.166c-0,16.109 13.058,29.167 29.166,29.167c16.109,-0 29.167,-13.058 29.167,-29.167c0,-16.108 -13.058,-29.166 -29.167,-29.166Zm-4.166,8.333l8.333,0l0,16.667l16.667,-0l-0,8.333l-16.667,0l0,16.667l-8.333,-0l-0,-16.667l-16.667,0l0,-8.333l16.667,-0l-0,-16.667Z" style="fill:#fff;fill-rule:nonzero;"/><path id="path12965-4-0" d="M37.208,968.361c-0.835,0.013 -1.632,0.351 -2.222,0.941l-12.853,12.853c-0.63,0.606 -0.987,1.443 -0.987,2.317c0,1.763 1.451,3.214 3.214,3.214c0.874,-0 1.711,-0.357 2.316,-0.987l7.368,-7.368l0,48.752l-19.279,19.28l-0,-11.523c-0,-0.017 -0,-0.033 -0,-0.05c-0,-1.763 -1.451,-3.214 -3.214,-3.214c-0.016,0 -0.033,0 -0.05,0.001c-1.744,0.027 -3.163,1.469 -3.163,3.213c-0,0.017 -0,0.033 -0,0.05l-0,19.28c0,1.763 1.451,3.213 3.213,3.213l19.28,0c0.015,0.001 0.03,0.001 0.046,0.001c1.763,-0 3.213,-1.451 3.213,-3.214c0,-1.763 -1.45,-3.213 -3.213,-3.213c-0.016,-0 -0.031,-0 -0.046,-0l-11.523,-0l19.28,-19.28l48.752,-0l-7.368,7.368c-0.63,0.606 -0.986,1.443 -0.986,2.317c-0,1.763 1.45,3.213 3.213,3.213c0.874,0 1.712,-0.356 2.317,-0.986l12.853,-12.853c1.246,-1.247 1.246,-3.298 0,-4.544l-12.853,-12.854c-0.605,-0.625 -1.439,-0.979 -2.309,-0.979c-1.763,0.001 -3.213,1.451 -3.213,3.214c-0,0.87 0.353,1.704 0.978,2.309l7.368,7.368l-46.869,0l0,-46.869l7.368,7.368c0.606,0.63 1.443,0.987 2.317,0.987c1.763,-0 3.213,-1.451 3.213,-3.214c0,-0.874 -0.356,-1.711 -0.986,-2.317l-12.853,-12.853c-0.615,-0.615 -1.453,-0.955 -2.322,-0.941Z" style="fill:#fff;fill-rule:nonzero;"/></g></svg>